<svg width="100" height="50" fill="none" xmlns="http://www.w3.org/2000/svg"><mask id="Group 2__a" maskUnits="userSpaceOnUse" x="10" y="16" width="82" height="19" fill="#000"><path fill="#fff" d="M10 16h82v19H10z"/><path d="M10.73 32.898v-14.59c0-.304.106-.566.317-.785.21-.218.469-.328.773-.328h8.942c4.726 0 7.09 2.18 7.09 6.54 0 4.35-2.364 6.527-7.09 6.527h-5.614v2.636c0 .305-.109.567-.328.786-.21.21-.468.316-.773.316h-2.203c-.305 0-.567-.105-.785-.316a1.071 1.071 0 0 1-.329-.786Zm4.418-5.953h4.278c1.312 0 2.308-.218 2.988-.656.68-.445 1.02-1.297 1.02-2.555 0-1.265-.34-2.117-1.02-2.554-.68-.446-1.676-.668-2.988-.668h-4.278v6.433Zm14.637 6.34V21.883a.698.698 0 0 1 .715-.727h2.45c.21 0 .382.07.515.211a.68.68 0 0 1 .21.516v7.699L37.802 22c.125-.242.316-.441.574-.598.258-.164.508-.246.75-.246h3.281c.211 0 .383.07.516.211a.68.68 0 0 1 .21.516v11.402a.698.698 0 0 1-.727.715h-2.448a.698.698 0 0 1-.516-.2.723.723 0 0 1-.199-.515v-7.687l-4.125 7.558a1.734 1.734 0 0 1-.574.598c-.258.164-.508.246-.75.246H30.5a.698.698 0 0 1-.516-.2.698.698 0 0 1-.199-.515Zm16.219 0V21.883a.698.698 0 0 1 .715-.727h2.625c.21 0 .383.07.515.211.133.133.2.305.2.516v4.195h5.132v-4.195c0-.211.067-.383.2-.516a.716.716 0 0 1 .527-.21h2.613a.698.698 0 0 1 .715.727v11.401a.695.695 0 0 1-.2.516.698.698 0 0 1-.515.199h-2.613a.738.738 0 0 1-.527-.2.723.723 0 0 1-.2-.515v-4.37H50.06v4.37c0 .211-.07.383-.211.516a.683.683 0 0 1-.504.199H46.72a.698.698 0 0 1-.516-.2.698.698 0 0 1-.2-.515Zm17.227-.738c-1.22-1.125-1.829-2.781-1.829-4.969 0-2.195.61-3.851 1.828-4.969 1.22-1.125 2.97-1.687 5.25-1.687 2.29 0 4.043.562 5.262 1.687 1.219 1.118 1.828 2.774 1.828 4.97 0 2.187-.61 3.843-1.828 4.968-1.219 1.125-2.973 1.687-5.261 1.687-2.282 0-4.032-.562-5.25-1.687Zm2.964-8.016c-.484.633-.726 1.645-.726 3.035 0 1.391.242 2.407.726 3.047.485.64 1.246.961 2.286.961 1.046 0 1.812-.32 2.296-.96.492-.641.739-1.657.739-3.048 0-1.39-.247-2.402-.739-3.035-.484-.633-1.25-.949-2.296-.949-1.04 0-1.801.316-2.286.95Zm24.493 8.953c0 .344-.204.516-.61.516h-2.215c-.75 0-1.347-.367-1.793-1.102l-1.488-2.425c-.64-1.04-1.57-1.559-2.789-1.559v4.371c0 .211-.07.383-.211.516a.681.681 0 0 1-.504.199h-2.625a.698.698 0 0 1-.516-.2.698.698 0 0 1-.199-.515V21.883a.698.698 0 0 1 .715-.727h2.625c.211 0 .383.07.516.211a.698.698 0 0 1 .199.516v4.36c1.36 0 2.289-.528 2.789-1.583l1.125-2.39c.156-.336.387-.606.691-.81a1.75 1.75 0 0 1 .985-.304h2.215c.39 0 .586.153.586.457 0 .172-.063.39-.188.657l-1.512 3.187a4.211 4.211 0 0 1-1.054 1.371c-.446.383-.926.629-1.442.738.961.29 1.793.993 2.496 2.11l1.993 3.222c.132.227.203.422.21.586Z"/></mask><path d="M10.73 32.898v-14.59c0-.304.106-.566.317-.785.21-.218.469-.328.773-.328h8.942c4.726 0 7.09 2.18 7.09 6.54 0 4.35-2.364 6.527-7.09 6.527h-5.614v2.636c0 .305-.109.567-.328.786-.21.21-.468.316-.773.316h-2.203c-.305 0-.567-.105-.785-.316a1.071 1.071 0 0 1-.329-.786Zm4.418-5.953h4.278c1.312 0 2.308-.218 2.988-.656.68-.445 1.02-1.297 1.02-2.555 0-1.265-.34-2.117-1.02-2.554-.68-.446-1.676-.668-2.988-.668h-4.278v6.433Zm14.637 6.34V21.883a.698.698 0 0 1 .715-.727h2.45c.21 0 .382.07.515.211a.68.68 0 0 1 .21.516v7.699L37.802 22c.125-.242.316-.441.574-.598.258-.164.508-.246.75-.246h3.281c.211 0 .383.07.516.211a.68.68 0 0 1 .21.516v11.402a.698.698 0 0 1-.727.715h-2.448a.698.698 0 0 1-.516-.2.723.723 0 0 1-.199-.515v-7.687l-4.125 7.558a1.734 1.734 0 0 1-.574.598c-.258.164-.508.246-.75.246H30.5a.698.698 0 0 1-.516-.2.698.698 0 0 1-.199-.515Zm16.219 0V21.883a.698.698 0 0 1 .715-.727h2.625c.21 0 .383.07.515.211.133.133.2.305.2.516v4.195h5.132v-4.195c0-.211.067-.383.2-.516a.716.716 0 0 1 .527-.21h2.613a.698.698 0 0 1 .715.727v11.401a.695.695 0 0 1-.2.516.698.698 0 0 1-.515.199h-2.613a.738.738 0 0 1-.527-.2.723.723 0 0 1-.2-.515v-4.37H50.06v4.37c0 .211-.07.383-.211.516a.683.683 0 0 1-.504.199H46.72a.698.698 0 0 1-.516-.2.698.698 0 0 1-.2-.515Zm17.227-.738c-1.22-1.125-1.829-2.781-1.829-4.969 0-2.195.61-3.851 1.828-4.969 1.22-1.125 2.97-1.687 5.25-1.687 2.29 0 4.043.562 5.262 1.687 1.219 1.118 1.828 2.774 1.828 4.97 0 2.187-.61 3.843-1.828 4.968-1.219 1.125-2.973 1.687-5.261 1.687-2.282 0-4.032-.562-5.25-1.687Zm2.964-8.016c-.484.633-.726 1.645-.726 3.035 0 1.391.242 2.407.726 3.047.485.64 1.246.961 2.286.961 1.046 0 1.812-.32 2.296-.96.492-.641.739-1.657.739-3.048 0-1.39-.247-2.402-.739-3.035-.484-.633-1.25-.949-2.296-.949-1.04 0-1.801.316-2.286.95Zm24.493 8.953c0 .344-.204.516-.61.516h-2.215c-.75 0-1.347-.367-1.793-1.102l-1.488-2.425c-.64-1.04-1.57-1.559-2.789-1.559v4.371c0 .211-.07.383-.211.516a.681.681 0 0 1-.504.199h-2.625a.698.698 0 0 1-.516-.2.698.698 0 0 1-.199-.515V21.883a.698.698 0 0 1 .715-.727h2.625c.211 0 .383.07.516.211a.698.698 0 0 1 .199.516v4.36c1.36 0 2.289-.528 2.789-1.583l1.125-2.39c.156-.336.387-.606.691-.81a1.75 1.75 0 0 1 .985-.304h2.215c.39 0 .586.153.586.457 0 .172-.063.39-.188.657l-1.512 3.187a4.211 4.211 0 0 1-1.054 1.371c-.446.383-.926.629-1.442.738.961.29 1.793.993 2.496 2.11l1.993 3.222c.132.227.203.422.21.586Z" fill="#fff"/><path d="M15.148 30.262v-.6h-.6v.6h.6Zm-4.09 3.422-.424.424.008.008.417-.432Zm4.09-6.739h-.6v.6h.6v-.6Zm7.266-.656.325.505.004-.003-.329-.502Zm0-5.11-.329.503.004.002.325-.504Zm-7.266-.667v-.6h-.6v.6h.6ZM10.73 32.898h.6v-14.59h-1.2v14.59h.6Zm0-14.59h.6c0-.15.046-.261.149-.368l-.432-.417-.432-.416a1.69 1.69 0 0 0-.485 1.202h.6Zm.317-.785.432.417a.435.435 0 0 1 .341-.145v-1.2c-.467 0-.88.176-1.205.512l.432.416Zm.773-.328v.6h8.942v-1.2H11.82v.6Zm8.942 0v.6c2.282 0 3.882.528 4.91 1.476 1.02.94 1.58 2.39 1.58 4.463h1.2c0-2.285-.622-4.105-1.966-5.345-1.335-1.231-3.28-1.794-5.724-1.794v.6Zm7.09 6.54h-.6c0 2.07-.56 3.515-1.58 4.454-1.028.946-2.628 1.473-4.91 1.473v1.2c2.444 0 4.389-.562 5.723-1.79 1.345-1.238 1.967-3.056 1.967-5.338h-.6Zm-7.09 6.527v-.6h-5.614v1.2h5.614v-.6Zm-5.614 0h-.6v2.636h1.2v-2.636h-.6Zm0 2.636h-.6a.473.473 0 0 1-.152.361l.424.425.425.424c.329-.33.503-.743.503-1.21h-.6Zm-.328.786-.424-.425a.454.454 0 0 1-.35.141v1.2c.46 0 .872-.166 1.199-.492l-.425-.424Zm-.773.316v-.6h-2.203v1.2h2.203V34Zm-2.203 0v-.6a.493.493 0 0 1-.369-.148l-.416.432-.417.431c.331.32.742.485 1.202.485V34Zm-.785-.316.424-.425a.473.473 0 0 1-.152-.36h-1.2c0 .466.174.88.503 1.209l.425-.424Zm4.09-6.739v.6h4.277v-1.2h-4.278v.6Zm4.277 0v.6c1.362 0 2.493-.224 3.313-.751l-.325-.505-.325-.505c-.54.348-1.4.561-2.663.561v.6Zm2.988-.656.329.502c.927-.608 1.29-1.713 1.29-3.057h-1.2c0 1.172-.316 1.77-.748 2.053l.33.502Zm1.02-2.555h.6c0-1.349-.362-2.459-1.295-3.059l-.325.505-.325.504c.427.275.745.868.745 2.05h.6Zm-1.02-2.554.329-.502c-.82-.538-1.953-.766-3.317-.766v1.2c1.26 0 2.12.216 2.66.57l.328-.502Zm-2.988-.668v-.6h-4.278v1.2h4.278v-.6Zm-4.278 0h-.6v6.433h1.2v-6.433h-.6Zm18.317.855-.436.412.011.013.013.011.412-.436Zm.21 8.215h-.6l1.128.287-.527-.287ZM37.802 22l.527.287.006-.012-.533-.275Zm.574-.598.311.514.011-.008-.322-.506Zm4.547-.035-.436.412.011.013.013.011.412-.436Zm0 12.434-.412-.436-.006.005-.006.007.424.424Zm-3.48 0-.437.412.006.006.006.006.424-.424Zm-.2-8.203h.6l-1.127-.288.527.288Zm-4.125 7.558.526.29v-.002l-.526-.288Zm-.574.598.322.506.01-.007-.332-.5Zm-4.758-.469h.6V21.883h-1.2v11.402h.6Zm0-11.402h.6c0-.073.018-.085.024-.091l-.425-.425-.424-.424c-.26.26-.375.591-.375.94h.6Zm.2-.516.424.424c.025-.025.043-.035.091-.035v-1.2c-.358 0-.684.131-.94.387l.424.424Zm.515-.21v.6h2.45v-1.2H30.5v.6Zm2.45 0v.6c.037 0 .054.005.06.007.003.002.008.004.019.015l.436-.412.436-.412a1.276 1.276 0 0 0-.952-.399v.6Zm.515.21-.412.436c.01.01.013.016.015.02a.161.161 0 0 1 .008.06h1.2c0-.36-.127-.695-.4-.952l-.411.436Zm.21.516h-.6v7.699h1.2v-7.7h-.6Zm0 7.699.528.287 4.125-7.582L37.8 22l-.527-.287-4.125 7.582.527.287ZM37.802 22l.533.275a.904.904 0 0 1 .352-.36l-.311-.513-.311-.513a2.102 2.102 0 0 0-.796.836L37.8 22Zm.574-.598.322.506c.187-.118.326-.152.428-.152v-1.2c-.383 0-.743.13-1.072.34l.322.506Zm.75-.246v.6h3.281v-1.2h-3.281v.6Zm3.281 0v.6c.038 0 .056.006.06.008.004.002.01.004.02.015l.436-.412.436-.412a1.276 1.276 0 0 0-.952-.399v.6Zm.516.211-.412.436c.01.01.013.016.015.02a.159.159 0 0 1 .008.06h1.2c0-.36-.127-.695-.4-.952l-.411.436Zm.21.516h-.6v11.402h1.2V21.883h-.6Zm0 11.402h-.6a.16.16 0 0 1-.007.06.053.053 0 0 1-.015.02l.412.436.412.436c.272-.257.399-.592.399-.952h-.6Zm-.21.516-.424-.425c-.006.007-.019.024-.092.024v1.2c.349 0 .68-.115.94-.375l-.424-.424Zm-.516.199v-.6h-2.449v1.2h2.45V34Zm-2.449 0v-.6c-.073 0-.085-.017-.091-.023l-.425.424-.424.424c.26.26.591.375.94.375V34Zm-.516-.2.437-.411c-.022-.023-.036-.045-.036-.104h-1.2c0 .348.12.67.363.928l.436-.412Zm-.199-.515h.6v-7.687h-1.2v7.687h.6Zm0-7.687-.526-.288-4.126 7.559.527.287.527.288 4.125-7.559-.527-.287Zm-4.125 7.558-.525-.29a1.14 1.14 0 0 1-.382.389l.333.499.333.5c.322-.216.587-.482.767-.808l-.526-.29Zm-.574.598-.322-.506c-.187.118-.326.152-.428.152v1.2c.383 0 .743-.13 1.072-.34l-.322-.506Zm-.75.246v-.6H30.5v1.2h3.293V34ZM30.5 34v-.6c-.073 0-.085-.017-.091-.023l-.425.424-.424.424c.26.26.591.375.94.375V34Zm-.516-.2.425-.423c-.006-.007-.024-.019-.024-.092h-1.2c0 .349.116.68.375.94l.424-.424ZM49.86 21.368l-.436.412.006.006.006.006.424-.424Zm.2 4.711h-.6v.6h.6v-.6Zm5.132 0v.6h.6v-.6h-.6Zm3.856-4.71-.436.411.006.006.006.006.424-.424ZM55.39 33.8l-.437.412.012.012.013.012.412-.436Zm-.2-4.887h.6v-.6h-.6v.6Zm-5.132 0v-.6h-.6v.6h.6Zm-.211 4.887-.412-.436-.007.005-.006.007.425.424Zm-3.844-.516h.6V21.883h-1.2v11.402h.6Zm0-11.402h.6c0-.073.017-.085.023-.091l-.424-.425-.424-.424c-.26.26-.375.591-.375.94h.6Zm.2-.516.423.424c.026-.025.044-.035.092-.035v-1.2a1.3 1.3 0 0 0-.94.387l.424.424Zm.515-.21v.6h2.625v-1.2h-2.625v.6Zm2.625 0v.6c.038 0 .055.005.06.007.003.002.009.004.02.015l.435-.412.437-.412a1.276 1.276 0 0 0-.952-.399v.6Zm.515.21-.424.424c.006.006.024.019.024.092h1.2a1.3 1.3 0 0 0-.375-.94l-.425.424Zm.2.516h-.6v4.195h1.2v-4.195h-.6Zm0 4.195v.6h5.132v-1.2h-5.13v.6Zm5.132 0h.6v-4.195h-1.2v4.195h.6Zm0-4.195h.6c0-.073.018-.085.024-.091l-.424-.425-.425-.424c-.26.26-.375.591-.375.94h.6Zm.2-.516.424.424c.02-.02.04-.035.103-.035v-1.2c-.36 0-.691.126-.952.387l.425.424Zm.527-.21v.6h2.613v-1.2h-2.613v.6Zm2.613 0v.6c.038 0 .056.005.06.007.004.002.01.004.02.015l.436-.412.436-.412a1.276 1.276 0 0 0-.952-.399v.6Zm.516.21-.424.424c.006.006.023.019.023.092h1.2c0-.349-.115-.68-.375-.94l-.424.424Zm.2.516h-.6v11.402h1.2V21.883h-.6Zm0 11.402h-.6c0 .073-.018.086-.024.092l.424.424.424.424c.26-.26.375-.591.375-.94h-.6Zm-.2.516-.424-.425c-.006.007-.019.024-.092.024v1.2c.349 0 .68-.115.94-.375l-.424-.424Zm-.516.2v-.6h-2.613v1.2h2.613V34Zm-2.613 0v-.6c-.073 0-.097-.018-.115-.035l-.412.436-.412.436c.262.248.59.363.939.363V34Zm-.527-.2.436-.411c-.022-.023-.036-.045-.036-.104h-1.2c0 .348.12.67.363.928l.437-.412Zm-.2-.515h.6v-4.37h-1.2v4.37h.6Zm0-4.37v-.6h-5.13v1.2h5.132v-.6Zm-5.132 0h-.6v4.37h1.2v-4.37h-.6Zm0 4.37h-.6a.162.162 0 0 1-.009.06.053.053 0 0 1-.014.02l.412.436.412.436c.272-.257.399-.592.399-.952h-.6Zm-.211.516-.425-.425a.06.06 0 0 1-.022.016.159.159 0 0 1-.057.008v1.2c.348 0 .673-.12.928-.375l-.424-.424Zm-.504.199v-.6h-2.625v1.2h2.625V34Zm-2.625 0v-.6c-.073 0-.086-.017-.092-.023l-.424.424-.424.424c.26.26.591.375.94.375V34Zm-.516-.2.424-.423c-.006-.007-.023-.019-.023-.092h-1.2c0 .349.115.68.375.94l.424-.424ZM63.23 22.61l.406.442.001-.002-.407-.44Zm10.512 0-.407.44.002.002.405-.443Zm-2.965 8.003-.475-.365-.003.003.478.362Zm0-6.082-.476.365.003.004.473-.369Zm-7.547 8.016.407-.441c-1.06-.978-1.635-2.452-1.635-4.528h-1.2c0 2.299.644 4.138 2.022 5.41l.407-.441Zm-1.828-4.969h.6c0-2.085.576-3.557 1.634-4.526l-.406-.443-.405-.442c-1.38 1.265-2.023 3.105-2.023 5.411h.6Zm1.828-4.969.407.441c1.073-.99 2.656-1.528 4.844-1.528v-1.2c-2.375 0-4.292.586-5.657 1.847l.407.44Zm5.25-1.687v.6c2.197 0 3.783.539 4.855 1.528l.407-.44.407-.441c-1.366-1.261-3.286-1.847-5.668-1.847v.6Zm5.262 1.687-.405.443c1.057.97 1.633 2.441 1.633 4.526h1.2c0-2.305-.643-4.146-2.022-5.41l-.406.441Zm1.828 4.97h-.6c0 2.075-.575 3.549-1.635 4.527l.407.44.407.442c1.378-1.272 2.021-3.111 2.021-5.41h-.6Zm-1.828 4.968-.407-.441c-1.072.99-2.658 1.528-4.854 1.528v1.2c2.382 0 4.302-.586 5.668-1.846l-.407-.441Zm-5.261 1.687v-.6c-2.188 0-3.771-.538-4.844-1.528l-.407.44-.406.442c1.365 1.26 3.282 1.846 5.657 1.846v-.6Zm-2.286-9.703-.476-.364c-.605.79-.85 1.965-.85 3.4h1.2c0-1.347.24-2.196.603-2.671l-.477-.365Zm-.726 3.035h-.6c0 1.436.245 2.612.848 3.41l.478-.363.479-.362c-.366-.484-.605-1.339-.605-2.685h-.6Zm.726 3.047-.478.362c.63.833 1.597 1.2 2.764 1.2v-1.2c-.912 0-1.468-.275-1.807-.724l-.479.362Zm2.286.961v.6c1.172 0 2.144-.365 2.775-1.199l-.479-.362-.478-.362c-.338.447-.897.723-1.819.723v.6Zm2.296-.96.476.365c.613-.798.863-1.976.863-3.413h-1.2c0 1.345-.243 2.198-.614 2.682l.475.365Zm.739-3.048h.6c0-1.436-.25-2.612-.865-3.403l-.474.368-.473.369c.369.474.612 1.321.612 2.666h.6Zm-.739-3.035.477-.364c-.632-.826-1.604-1.185-2.773-1.185v1.2c.923 0 1.483.274 1.82.714l.476-.365Zm-2.296-.949v-.6c-1.165 0-2.131.36-2.762 1.185l.476.364.477.365c.338-.442.894-.714 1.809-.714v-.6Zm22.207 9.902h.6v-.014l-.001-.014-.6.028Zm-4.618-.586.513-.31-.001-.003-.512.313Zm-1.488-2.425.512-.314-.001-.001-.511.315Zm-2.789-1.559v-.6h-.6v.6h.6Zm-.211 4.887-.412-.436-.006.005-.006.007.424.424Zm.012-12.434-.436.412.005.006.007.006.424-.424Zm.199 4.875h-.6v.6h.6v-.6Zm2.789-1.582.542.257v-.001l-.542-.256Zm1.125-2.39.543.255.001-.002-.544-.253Zm4.29 0 .541.257.001-.002-.543-.255Zm-1.513 3.187.54.262.002-.005-.542-.257Zm-2.496 2.11-.124-.587-.049 1.161.173-.575Zm2.496 2.109.51-.316-.002-.004-.508.32Zm1.993 3.222.517-.303-.007-.012-.51.315Zm.21.586h-.6c0 .029-.004.026.004.006a.206.206 0 0 1 .056-.077c.027-.022.044-.025.035-.023a.412.412 0 0 1-.104.01v1.2c.273 0 .59-.056.845-.27.273-.232.364-.553.364-.846h-.6Zm-.609.516v-.6h-2.215v1.2h2.215V34Zm-2.215 0v-.6c-.506 0-.924-.227-1.28-.813l-.513.311-.513.311c.536.883 1.313 1.391 2.306 1.391V34Zm-1.793-1.102.512-.313-1.489-2.426-.511.314-.511.313 1.488 2.426.511-.314Zm-1.488-2.425.51-.315c-.749-1.216-1.872-1.844-3.299-1.844v1.2c1.01 0 1.747.411 2.278 1.274l.511-.315Zm-2.789-1.559h-.6v4.371h1.2v-4.37h-.6Zm0 4.371h-.6a.162.162 0 0 1-.008.06.053.053 0 0 1-.015.02l.412.436.412.436c.272-.257.399-.592.399-.952h-.6Zm-.211.516-.424-.425a.06.06 0 0 1-.022.016.158.158 0 0 1-.058.008v1.2c.348 0 .673-.12.928-.375l-.424-.424Zm-.504.199v-.6h-2.625v1.2h2.625V34Zm-2.625 0v-.6c-.073 0-.085-.017-.091-.023l-.424.424-.425.424c.26.26.591.375.94.375V34Zm-.516-.2.425-.423c-.006-.007-.024-.019-.024-.092h-1.2c0 .349.116.68.375.94l.424-.424Zm-.199-.515h.6V21.883h-1.2v11.402h.6Zm0-11.402h.6c0-.073.018-.085.024-.091l-.424-.425-.425-.424c-.26.26-.375.591-.375.94h.6Zm.2-.516.424.424c.025-.025.043-.035.091-.035v-1.2c-.358 0-.684.131-.94.387l.424.424Zm.515-.21v.6h2.625v-1.2h-2.625v.6Zm2.625 0v.6c.038 0 .055.005.06.007.004.002.01.004.02.015l.436-.412.436-.412a1.276 1.276 0 0 0-.952-.399v.6Zm.516.21-.424.424c.005.006.023.019.023.092h1.2c0-.349-.115-.68-.375-.94l-.424.424Zm.199.516h-.6v4.36h1.2v-4.36h-.6Zm0 4.36v.6c.756 0 1.436-.148 2.013-.474.582-.33 1.02-.824 1.318-1.452l-.542-.257-.542-.257c-.202.427-.479.725-.826.922-.353.2-.817.317-1.421.317v.6Zm2.789-1.583.543.256 1.125-2.391-.543-.255-.543-.256-1.125 2.39.543.256Zm1.125-2.39.544.253c.11-.238.268-.422.48-.563l-.333-.5-.332-.498c-.398.265-.7.62-.903 1.055l.544.253Zm.691-.81.333.5c.21-.14.424-.204.652-.204v-1.2c-.475 0-.918.14-1.317.406l.332.499Zm.985-.304v.6h2.215v-1.2h-2.215v.6Zm2.215 0v.6c.06 0 .093.006.105.01.011.002-.007 0-.035-.022a.246.246 0 0 1-.073-.095c-.013-.032-.011-.049-.011-.036h1.2c0-.29-.101-.6-.378-.816-.248-.194-.552-.24-.808-.24v.6Zm.586.457h-.6c0 .042-.02.166-.13.401l.542.256.543.255c.14-.297.245-.61.245-.912h-.6Zm-.188.657-.542-.258-1.512 3.188.542.257.543.257 1.511-3.187-.542-.258Zm-1.512 3.187-.54-.262a3.617 3.617 0 0 1-.905 1.178l.39.455.392.455c.508-.437.91-.96 1.203-1.564l-.54-.262Zm-1.054 1.371-.391-.455c-.378.325-.769.52-1.175.607l.124.586.125.587c.625-.132 1.195-.429 1.708-.87l-.391-.455Zm-1.442.738-.173.575c.784.236 1.51.82 2.162 1.854l.507-.32.508-.319c-.755-1.2-1.692-2.022-2.83-2.364l-.174.574Zm2.496 2.11-.51.315 1.992 3.223.51-.316.51-.315-1.991-3.223-.51.316Zm1.993 3.222-.518.304c.11.188.128.285.13.31l.599-.028.599-.028c-.015-.302-.137-.596-.293-.861l-.517.303Z" fill="#8A8A8A" mask="url(#Group 2__a)"/></svg>