<svg width="100" height="50" fill="none" xmlns="http://www.w3.org/2000/svg"><mask id="Group 1__a" maskUnits="userSpaceOnUse" x="11" y="13" width="79" height="21" fill="#000"><path fill="#fff" d="M11 13h79v21H11z"/><path d="M12.687 33c-.304 0-.56-.08-.768-.24a.9.9 0 0 1-.289-.696V15.192a.91.91 0 0 1 .264-.672.91.91 0 0 1 .672-.264h10.225c.24 0 .44.088.6.264.176.16.264.376.264.648s-.088.488-.265.648c-.16.16-.36.24-.6.24h-9.287v5.88h5.927c1.12 0 2.113.24 2.977.72A5.144 5.144 0 0 1 24.47 24.6c.495.816.744 1.76.744 2.832 0 1.088-.248 2.056-.744 2.904a5.313 5.313 0 0 1-2.064 1.968c-.864.464-1.857.696-2.977.696h-6.743Zm.816-1.8h5.927c.768 0 1.448-.16 2.04-.48a3.516 3.516 0 0 0 1.393-1.344c.335-.576.503-1.248.503-2.016s-.168-1.432-.503-1.992a3.354 3.354 0 0 0-1.392-1.32c-.593-.304-1.273-.456-2.04-.456h-5.929V31.2ZM30.007 33c-.288 0-.52-.08-.696-.24-.16-.176-.24-.408-.24-.696V20.808c0-.288.08-.512.24-.672.176-.176.408-.264.696-.264.272 0 .488.088.648.264.176.16.264.384.264.672v11.256c0 .288-.088.52-.264.696-.16.16-.376.24-.648.24Zm-.024-15.624c-.352 0-.656-.128-.912-.384a1.274 1.274 0 0 1-.384-.936c0-.4.128-.712.384-.936.272-.24.584-.36.936-.36.336 0 .632.12.888.36.272.224.408.536.408.936 0 .368-.128.68-.384.936a1.274 1.274 0 0 1-.936.384Zm9.794 15.84c-.688 0-1.36-.088-2.016-.264a7.442 7.442 0 0 1-1.776-.768c-.528-.336-.944-.704-1.248-1.104a.878.878 0 0 1-.192-.672c.048-.24.192-.432.432-.576.176-.112.384-.136.624-.072.256.048.464.16.624.336.4.416.904.76 1.512 1.032s1.28.408 2.016.408c.96 0 1.736-.2 2.328-.6.608-.4.912-.968.912-1.704 0-.64-.24-1.176-.72-1.608-.464-.432-1.048-.664-1.752-.696h-1.224c-.304 0-.552-.072-.744-.216-.192-.16-.288-.352-.288-.576 0-.224.096-.408.288-.552.192-.144.44-.216.744-.216h1.224c.592-.016 1.072-.216 1.44-.6.368-.384.552-.856.552-1.416 0-.576-.256-1.048-.768-1.416-.496-.368-1.168-.552-2.016-.552-.784 0-1.44.128-1.968.384s-.952.584-1.272.984a1.133 1.133 0 0 1-.624.36.95.95 0 0 1-.648-.144.667.667 0 0 1-.36-.528.97.97 0 0 1 .216-.672c.512-.592 1.16-1.088 1.944-1.488.8-.4 1.696-.6 2.688-.6.896 0 1.688.16 2.376.48.704.304 1.256.728 1.656 1.272.4.528.6 1.12.6 1.776 0 .528-.144 1.016-.432 1.464a3.324 3.324 0 0 1-1.128 1.08 3.64 3.64 0 0 1-1.56.48v-.264c.672 0 1.28.144 1.824.432.544.288.976.688 1.296 1.2.32.496.48 1.056.48 1.68 0 .752-.224 1.424-.672 2.016-.432.592-1.032 1.064-1.8 1.416-.752.336-1.608.504-2.568.504ZM59.185 33a.96.96 0 0 1-.672-.24c-.176-.176-.264-.408-.264-.696V20.808c0-.288.088-.512.264-.672a.91.91 0 0 1 .672-.264c.272 0 .488.088.648.264.16.16.24.384.24.672v11.256c0 .288-.08.52-.24.696-.16.16-.376.24-.648.24Zm-10.32 0a.96.96 0 0 1-.672-.24c-.16-.176-.24-.408-.24-.696V20.808c0-.288.08-.512.24-.672a.91.91 0 0 1 .672-.264c.272 0 .488.088.648.264.176.16.264.384.264.672v11.256c0 .288-.088.52-.264.696-.16.16-.376.24-.648.24Zm.6-5.784V25.56h9.432v1.656h-9.432Zm20.87 5.904c-1.296 0-2.448-.28-3.456-.84a6.326 6.326 0 0 1-2.352-2.376c-.56-1.008-.84-2.16-.84-3.456 0-1.312.264-2.464.792-3.456a6.141 6.141 0 0 1 2.232-2.376c.944-.576 2.032-.864 3.264-.864 1.216 0 2.272.28 3.168.84a5.49 5.49 0 0 1 2.112 2.28c.496.976.744 2.088.744 3.336 0 .256-.08.464-.24.624-.16.144-.368.216-.624.216h-10.2v-1.536h10.392l-1.032.744c.016-.928-.152-1.76-.504-2.496a4.08 4.08 0 0 0-1.512-1.728c-.64-.416-1.408-.624-2.304-.624-.912 0-1.712.216-2.4.648a4.394 4.394 0 0 0-1.608 1.8c-.368.752-.552 1.616-.552 2.592s.208 1.84.624 2.592a4.785 4.785 0 0 0 1.752 1.776c.736.432 1.584.648 2.544.648.576 0 1.152-.096 1.728-.288.592-.208 1.064-.464 1.416-.768a.922.922 0 0 1 .6-.216.797.797 0 0 1 .576.168c.208.192.312.4.312.624.016.224-.072.416-.264.576-.528.448-1.2.824-2.016 1.128-.816.288-1.6.432-2.352.432Zm14.177 0c-1.264 0-2.392-.288-3.384-.864a6.57 6.57 0 0 1-2.328-2.4c-.56-1.008-.84-2.144-.84-3.408 0-1.28.272-2.424.816-3.432a6.141 6.141 0 0 1 2.232-2.376c.944-.592 2.032-.888 3.264-.888.976 0 1.872.192 2.688.576.832.384 1.56.96 2.184 1.728.176.192.24.4.192.624-.048.208-.184.392-.408.552a.792.792 0 0 1-.6.144 1.012 1.012 0 0 1-.552-.36c-.928-1.056-2.096-1.584-3.504-1.584-.896 0-1.688.216-2.376.648a4.49 4.49 0 0 0-1.584 1.776c-.368.752-.552 1.616-.552 2.592 0 .96.2 1.816.6 2.568.4.752.96 1.344 1.68 1.776.72.432 1.544.648 2.472.648.624 0 1.192-.08 1.704-.24.528-.176.992-.44 1.392-.792a1.06 1.06 0 0 1 .6-.264c.208-.016.4.048.576.192.192.176.296.376.312.6a.621.621 0 0 1-.216.576c-1.168 1.072-2.624 1.608-4.368 1.608Z"/></mask><path d="M12.687 33c-.304 0-.56-.08-.768-.24a.9.9 0 0 1-.289-.696V15.192a.91.91 0 0 1 .264-.672.91.91 0 0 1 .672-.264h10.225c.24 0 .44.088.6.264.176.16.264.376.264.648s-.088.488-.265.648c-.16.16-.36.24-.6.24h-9.287v5.88h5.927c1.12 0 2.113.24 2.977.72A5.144 5.144 0 0 1 24.47 24.6c.495.816.744 1.76.744 2.832 0 1.088-.248 2.056-.744 2.904a5.313 5.313 0 0 1-2.064 1.968c-.864.464-1.857.696-2.977.696h-6.743Zm.816-1.8h5.927c.768 0 1.448-.16 2.04-.48a3.516 3.516 0 0 0 1.393-1.344c.335-.576.503-1.248.503-2.016s-.168-1.432-.503-1.992a3.354 3.354 0 0 0-1.392-1.32c-.593-.304-1.273-.456-2.04-.456h-5.929V31.2ZM30.007 33c-.288 0-.52-.08-.696-.24-.16-.176-.24-.408-.24-.696V20.808c0-.288.08-.512.24-.672.176-.176.408-.264.696-.264.272 0 .488.088.648.264.176.16.264.384.264.672v11.256c0 .288-.088.52-.264.696-.16.16-.376.24-.648.24Zm-.024-15.624c-.352 0-.656-.128-.912-.384a1.274 1.274 0 0 1-.384-.936c0-.4.128-.712.384-.936.272-.24.584-.36.936-.36.336 0 .632.12.888.36.272.224.408.536.408.936 0 .368-.128.68-.384.936a1.274 1.274 0 0 1-.936.384Zm9.794 15.84c-.688 0-1.36-.088-2.016-.264a7.442 7.442 0 0 1-1.776-.768c-.528-.336-.944-.704-1.248-1.104a.878.878 0 0 1-.192-.672c.048-.24.192-.432.432-.576.176-.112.384-.136.624-.072.256.048.464.16.624.336.4.416.904.76 1.512 1.032s1.28.408 2.016.408c.96 0 1.736-.2 2.328-.6.608-.4.912-.968.912-1.704 0-.64-.24-1.176-.72-1.608-.464-.432-1.048-.664-1.752-.696h-1.224c-.304 0-.552-.072-.744-.216-.192-.16-.288-.352-.288-.576 0-.224.096-.408.288-.552.192-.144.44-.216.744-.216h1.224c.592-.016 1.072-.216 1.44-.6.368-.384.552-.856.552-1.416 0-.576-.256-1.048-.768-1.416-.496-.368-1.168-.552-2.016-.552-.784 0-1.44.128-1.968.384s-.952.584-1.272.984a1.133 1.133 0 0 1-.624.36.95.95 0 0 1-.648-.144.667.667 0 0 1-.36-.528.97.97 0 0 1 .216-.672c.512-.592 1.16-1.088 1.944-1.488.8-.4 1.696-.6 2.688-.6.896 0 1.688.16 2.376.48.704.304 1.256.728 1.656 1.272.4.528.6 1.12.6 1.776 0 .528-.144 1.016-.432 1.464a3.324 3.324 0 0 1-1.128 1.08 3.64 3.64 0 0 1-1.56.48v-.264c.672 0 1.28.144 1.824.432.544.288.976.688 1.296 1.2.32.496.48 1.056.48 1.68 0 .752-.224 1.424-.672 2.016-.432.592-1.032 1.064-1.8 1.416-.752.336-1.608.504-2.568.504ZM59.185 33a.96.96 0 0 1-.672-.24c-.176-.176-.264-.408-.264-.696V20.808c0-.288.088-.512.264-.672a.91.91 0 0 1 .672-.264c.272 0 .488.088.648.264.16.16.24.384.24.672v11.256c0 .288-.08.52-.24.696-.16.16-.376.24-.648.24Zm-10.32 0a.96.96 0 0 1-.672-.24c-.16-.176-.24-.408-.24-.696V20.808c0-.288.08-.512.24-.672a.91.91 0 0 1 .672-.264c.272 0 .488.088.648.264.176.16.264.384.264.672v11.256c0 .288-.088.52-.264.696-.16.16-.376.24-.648.24Zm.6-5.784V25.56h9.432v1.656h-9.432Zm20.87 5.904c-1.296 0-2.448-.28-3.456-.84a6.326 6.326 0 0 1-2.352-2.376c-.56-1.008-.84-2.16-.84-3.456 0-1.312.264-2.464.792-3.456a6.141 6.141 0 0 1 2.232-2.376c.944-.576 2.032-.864 3.264-.864 1.216 0 2.272.28 3.168.84a5.49 5.49 0 0 1 2.112 2.28c.496.976.744 2.088.744 3.336 0 .256-.08.464-.24.624-.16.144-.368.216-.624.216h-10.2v-1.536h10.392l-1.032.744c.016-.928-.152-1.76-.504-2.496a4.08 4.08 0 0 0-1.512-1.728c-.64-.416-1.408-.624-2.304-.624-.912 0-1.712.216-2.4.648a4.394 4.394 0 0 0-1.608 1.8c-.368.752-.552 1.616-.552 2.592s.208 1.84.624 2.592a4.785 4.785 0 0 0 1.752 1.776c.736.432 1.584.648 2.544.648.576 0 1.152-.096 1.728-.288.592-.208 1.064-.464 1.416-.768a.922.922 0 0 1 .6-.216.797.797 0 0 1 .576.168c.208.192.312.4.312.624.016.224-.072.416-.264.576-.528.448-1.2.824-2.016 1.128-.816.288-1.6.432-2.352.432Zm14.177 0c-1.264 0-2.392-.288-3.384-.864a6.57 6.57 0 0 1-2.328-2.4c-.56-1.008-.84-2.144-.84-3.408 0-1.28.272-2.424.816-3.432a6.141 6.141 0 0 1 2.232-2.376c.944-.592 2.032-.888 3.264-.888.976 0 1.872.192 2.688.576.832.384 1.56.96 2.184 1.728.176.192.24.4.192.624-.048.208-.184.392-.408.552a.792.792 0 0 1-.6.144 1.012 1.012 0 0 1-.552-.36c-.928-1.056-2.096-1.584-3.504-1.584-.896 0-1.688.216-2.376.648a4.49 4.49 0 0 0-1.584 1.776c-.368.752-.552 1.616-.552 2.592 0 .96.2 1.816.6 2.568.4.752.96 1.344 1.68 1.776.72.432 1.544.648 2.472.648.624 0 1.192-.08 1.704-.24.528-.176.992-.44 1.392-.792a1.06 1.06 0 0 1 .6-.264c.208-.016.4.048.576.192.192.176.296.376.312.6a.621.621 0 0 1-.216.576c-1.168 1.072-2.624 1.608-4.368 1.608Z" fill="#fff"/><path d="m11.918 32.76-.405.442.02.018.02.016.365-.476Zm-.023-18.24.424.424-.425-.424Zm11.495 0-.444.404.02.02.02.02.404-.444Zm0 1.296-.403-.444-.01.01-.01.01.424.424Zm-9.888.24v-.6h-.6v.6h.6Zm0 5.88h-.6v.6h.6v-.6Zm8.905.72-.292.525.012.006.28-.531ZM24.47 24.6l-.516.307.003.005.513-.312Zm0 5.736.515.307.002-.004-.517-.303Zm-2.064 1.968.283.529.004-.002-.287-.527ZM13.502 31.2h-.6v.6h.6v-.6Zm7.969-.48.285.528-.285-.528Zm1.392-1.344-.519-.302.518.302Zm0-4.008-.519.302.004.007.515-.309Zm-1.392-1.32.274-.534-.274.534Zm-7.969-.456v-.6h-.6v.6h.6ZM12.686 33v-.6c-.193 0-.315-.049-.402-.116l-.366.476-.365.476c.329.253.719.364 1.133.364V33Zm-.768-.24.406-.442c-.054-.05-.094-.114-.094-.254h-1.2c0 .436.153.836.483 1.138l.405-.442Zm-.287-.696h.6V15.192h-1.2v16.872h.6Zm0-16.872h.6c0-.13.035-.195.088-.248l-.425-.424-.424-.424c-.3.3-.44.681-.44 1.096h.6Zm.264-.672.424.424c.052-.052.118-.088.247-.088v-1.2c-.414 0-.796.14-1.096.44l.425.424Zm.671-.264v.6h10.225v-1.2H12.566v.6Zm10.225 0v.6a.18.18 0 0 1 .155.068l.444-.404.444-.404a1.376 1.376 0 0 0-1.043-.46v.6Zm.6.264-.404.444c.032.03.068.074.068.204h1.2c0-.414-.141-.801-.46-1.092l-.405.444Zm.264.648h-.6c0 .13-.036.175-.068.204l.404.444.403.444c.32-.29.46-.678.46-1.092h-.6Zm-.265.648-.424-.424c-.04.04-.084.064-.175.064v1.2c.388 0 .744-.136 1.024-.416l-.425-.424Zm-.6.24v-.6h-9.287v1.2h9.288v-.6Zm-9.287 0h-.6v5.88h1.2v-5.88h-.6Zm0 5.88v.6h5.927v-1.2h-5.928v.6Zm5.927 0v.6c1.032 0 1.922.22 2.685.644l.292-.524.29-.524c-.964-.536-2.058-.796-3.267-.796v.6Zm2.977.72-.28.53c.785.415 1.39.987 1.828 1.721l.516-.307.515-.307a5.743 5.743 0 0 0-2.3-2.168l-.28.531ZM24.47 24.6l-.513.312c.432.71.657 1.544.657 2.52h1.2c0-1.168-.272-2.223-.832-3.144l-.512.312Zm.744 2.832h-.6c0 .993-.226 1.855-.662 2.601l.518.303.517.303c.556-.95.826-2.024.826-3.207h-.6Zm-.744 2.904-.516-.307a4.714 4.714 0 0 1-1.836 1.748l.288.527.287.527a5.92 5.92 0 0 0 2.292-2.188l-.515-.307Zm-2.064 1.968-.284-.529c-.765.411-1.657.625-2.693.625v1.2c1.205 0 2.297-.25 3.26-.767l-.284-.529ZM19.43 33v-.6h-6.743v1.2h6.743V33Zm-5.928-1.8v.6h5.928v-1.2h-5.928v.6Zm5.928 0v.6c.854 0 1.634-.178 2.326-.552l-.285-.528-.286-.528c-.492.267-1.072.408-1.755.408v.6Zm2.04-.48.286.528a4.114 4.114 0 0 0 1.625-1.57l-.518-.302-.519-.302c-.28.48-.663.85-1.159 1.118l.286.528Zm1.393-1.344.518.302c.397-.68.585-1.46.585-2.318h-1.2c0 .678-.147 1.243-.422 1.714l.518.302Zm.503-2.016h.6c0-.857-.188-1.632-.589-2.3l-.514.308-.515.309c.27.451.419 1.004.419 1.683h.6Zm-.503-1.992.518-.302a3.953 3.953 0 0 0-1.636-1.552l-.274.534-.275.534c.49.251.87.611 1.148 1.088l.518-.302Zm-1.392-1.32.274-.534c-.69-.354-1.466-.522-2.315-.522v1.2c.688 0 1.271.136 1.766.39l.274-.534Zm-2.04-.456v-.6h-5.929v1.2h5.928v-.6Zm-5.929 0h-.6V31.2h1.2v-7.608h-.6Zm15.81 9.168-.445.404.02.02.02.02.404-.444Zm0-12.624.424.424-.425-.424Zm1.343 0-.444.404.02.02.02.02.404-.444Zm0 12.624-.424-.424.424.424Zm-1.584-15.768.425-.424-.425.424Zm0-1.872.395.452.002-.002-.397-.45Zm1.824 0-.41.438.014.013.015.012.381-.463Zm.024 1.872-.424-.424.424.424ZM30.007 33v-.6c-.172 0-.249-.045-.292-.084l-.404.444-.403.444c.308.28.695.396 1.1.396V33Zm-.696-.24.444-.404c-.039-.043-.084-.12-.084-.292h-1.2c0 .404.116.79.396 1.1l.444-.404Zm-.24-.696h.6V20.808h-1.2v11.256h.6Zm0-11.256h.6c0-.174.046-.229.065-.248l-.425-.424-.424-.424c-.301.3-.416.694-.416 1.096h.6Zm.24-.672.425.424c.045-.045.115-.088.271-.088v-1.2c-.42 0-.814.133-1.12.44l.424.424Zm.696-.264v.6c.13 0 .175.035.204.068l.444-.404.444-.404c-.29-.32-.677-.46-1.092-.46v.6Zm.648.264-.403.444c.025.023.067.07.067.228h1.2c0-.418-.133-.819-.46-1.116l-.404.444Zm.264.672h-.6v11.256h1.2V20.808h-.6Zm0 11.256h-.6c0 .156-.042.226-.088.272l.424.424.425.424c.306-.306.44-.7.44-1.12h-.6Zm-.264.696-.424-.424c-.025.025-.076.064-.224.064v1.2c.397 0 .778-.121 1.073-.416l-.425-.424Zm-.672-15.384v-.6a.648.648 0 0 1-.487-.208l-.425.424-.424.424c.365.365.82.56 1.336.56v-.6Zm-.912-.384.425-.424a.675.675 0 0 1-.209-.512h-1.2c0 .524.19.99.56 1.36l.424-.424Zm-.384-.936h.6c0-.26.077-.395.18-.485l-.396-.451-.395-.451c-.41.358-.589.848-.589 1.387h.6Zm.384-.936.397.45a.775.775 0 0 1 .54-.21v-1.2c-.504 0-.956.177-1.334.51l.397.45Zm.936-.36v.6a.66.66 0 0 1 .478.198l.41-.438.41-.438a1.859 1.859 0 0 0-1.298-.522v.6Zm.888.36-.381.463c.114.094.19.225.19.473h1.2c0-.552-.197-1.045-.627-1.4l-.382.464Zm.408.936h-.6c0 .212-.066.37-.208.512l.424.424.425.424c.37-.37.56-.836.56-1.36h-.6Zm-.384.936-.424-.424a.675.675 0 0 1-.512.208v1.2c.524 0 .99-.19 1.36-.56l-.424-.424Zm6.842 15.96-.169.576.013.004.156-.58Zm-1.776-.768-.322.506.01.007.312-.513Zm-1.248-1.104.477-.363-.002-.003-.475.366Zm-.192-.672-.589-.118-.003.02-.003.019.595.079Zm.432-.576.309.514.006-.004.007-.004-.322-.506Zm.624-.072-.155.58.022.006.022.004.11-.59Zm.624.336-.444.404.005.006.006.006.433-.416Zm1.512 1.032-.245.548.245-.548Zm4.344-.192-.33-.501-.006.004.336.497Zm.192-3.312-.41.44.008.006.402-.446Zm-1.752-.696.027-.6h-.027v.6Zm-1.968-.216-.384.46.012.01.012.01.36-.48Zm0-1.128.36.48-.36-.48Zm1.968-.216v.6h.016l-.016-.6Zm1.44-.6-.433-.415.433.415Zm-.216-2.832-.358.482.008.005.35-.487Zm-3.984-.168-.262-.54.262.54Zm-1.272.984.442.405.014-.014.012-.016-.468-.375Zm-.624.36.085.594.016-.002.017-.004-.118-.588Zm-.648-.144.314-.511-.014-.01-.016-.007-.284.528Zm-.36-.528-.599.04.002.02.002.02.595-.08Zm.216-.672-.454-.393-.011.014-.01.013.475.366Zm1.944-1.488-.269-.537-.004.003.273.534Zm5.064-.12-.253.544.007.003.008.004.238-.551Zm1.656 1.272-.484.356.006.006.478-.362Zm.168 3.24-.505-.325-.003.005.508.32Zm-1.128 1.08.303.518.006-.003-.31-.515Zm-1.56.48h-.6v.652l.65-.054-.05-.598Zm0-.264v-.6h-.6v.6h.6Zm3.12 1.632-.509.318.005.007.504-.325Zm-.192 3.696-.479-.362-.006.008.485.354Zm-1.8 1.416.245.548.005-.003-.25-.545Zm-2.568.504v-.6a7.148 7.148 0 0 1-1.86-.243l-.156.579-.156.58c.708.19 1.432.284 2.172.284v-.6Zm-2.016-.264.168-.576a6.847 6.847 0 0 1-1.633-.705l-.311.513-.311.513c.577.35 1.218.626 1.918.83l.169-.575Zm-1.776-.768.322-.506c-.482-.307-.84-.63-1.093-.961l-.477.363-.478.363c.356.469.83.882 1.404 1.247l.322-.506Zm-1.248-1.104.475-.366c-.071-.093-.081-.16-.072-.227l-.595-.079-.595-.08a1.48 1.48 0 0 0 .311 1.118l.476-.366Zm-.192-.672.588.118c.01-.05.034-.109.152-.18l-.308-.514-.309-.515c-.362.218-.625.543-.712.973l.589.118Zm.432-.576.322.506c.007-.005.036-.028.147.002l.155-.58.154-.58c-.368-.098-.756-.073-1.1.146l.322.506Zm.624-.072-.11.59a.49.49 0 0 1 .29.15l.444-.404.444-.404a1.686 1.686 0 0 0-.958-.522l-.11.59Zm.624.336-.433.416c.461.48 1.032.865 1.7 1.164l.245-.548.245-.548c-.548-.245-.986-.547-1.325-.9l-.432.416Zm1.512 1.032-.245.548c.693.31 1.45.46 2.26.46v-1.2a4.28 4.28 0 0 1-1.77-.356l-.245.548Zm2.016.408v.6c1.04 0 1.944-.216 2.664-.703l-.336-.497-.336-.497c-.464.313-1.112.497-1.992.497v.6Zm2.328-.6.33.501c.779-.512 1.182-1.27 1.182-2.205h-1.2c0 .537-.205.915-.642 1.203l.33.501Zm.912-1.704h.6c0-.812-.314-1.51-.919-2.054l-.401.446-.402.446c.355.32.522.694.522 1.162h.6Zm-.72-1.608.409-.44c-.58-.54-1.305-.818-2.134-.855l-.027.599-.027.6c.578.026 1.022.211 1.37.535l.409-.439Zm-1.752-.696v-.6h-1.224v1.2h1.224v-.6Zm-1.224 0v-.6c-.21 0-.32-.049-.384-.096l-.36.48-.36.48c.32.24.705.336 1.104.336v-.6Zm-.744-.216.384-.46c-.073-.062-.072-.092-.072-.116h-1.2c0 .424.193.778.504 1.037l.384-.461Zm-.288-.576h.6c0-.013.001-.02.002-.023 0-.003.001-.004.002-.005 0-.001.008-.017.044-.044l-.36-.48-.36-.48c-.33.248-.528.604-.528 1.032h.6Zm.288-.552.36.48c.063-.047.175-.096.384-.096v-1.2c-.399 0-.783.095-1.104.336l.36.48Zm.744-.216v.6h1.224v-1.2h-1.224v.6Zm1.224 0 .016.6c.73-.02 1.367-.273 1.857-.785l-.433-.415-.433-.415c-.246.256-.57.403-1.023.415l.016.6Zm1.44-.6.433.415c.481-.502.719-1.125.719-1.831h-1.2c0 .414-.13.735-.385 1l.433.416Zm.552-1.416h.6c0-.79-.366-1.435-1.018-1.903l-.35.487-.35.487c.372.268.518.567.518.929h.6Zm-.768-1.416.357-.482c-.631-.469-1.444-.67-2.373-.67v1.2c.766 0 1.298.167 1.658.434l.358-.482Zm-2.016-.552v-.6c-.846 0-1.598.138-2.23.444l.262.54.262.54c.423-.206.983-.324 1.706-.324v-.6Zm-1.968.384-.262-.54c-.597.29-1.095.67-1.479 1.15l.469.374.468.375c.257-.321.606-.596 1.066-.82l-.262-.539Zm-1.272.984-.442-.405a.535.535 0 0 1-.3.177l.118.588.117.588a1.73 1.73 0 0 0 .95-.543l-.443-.405Zm-.624.36-.085-.594c-.074.01-.15 0-.249-.061l-.314.511-.315.511c.317.195.674.28 1.048.227l-.085-.594Zm-.648-.144.284-.528c-.028-.016-.034-.026-.034-.026s-.01-.013-.015-.053l-.595.079-.595.08c.057.424.288.77.67.976l.285-.528Zm-.36-.528.599-.04a.372.372 0 0 1 .092-.266l-.475-.366-.476-.366c-.24.313-.366.678-.339 1.078l.599-.04Zm.216-.672.454.392c.455-.526 1.039-.976 1.762-1.346l-.272-.534-.273-.535c-.844.431-1.556.973-2.125 1.63l.454.393Zm1.944-1.488.268.537c.708-.354 1.51-.537 2.42-.537v-1.2c-1.075 0-2.064.217-2.956.663l.268.537Zm2.688-.6v.6c.824 0 1.527.147 2.123.424l.253-.544.253-.544c-.78-.363-1.661-.536-2.63-.536v.6Zm2.376.48-.238.55c.62.268 1.082.63 1.41 1.077l.484-.355.483-.355c-.471-.641-1.113-1.128-1.901-1.468l-.238.551Zm1.656 1.272-.478.362c.321.425.478.89.478 1.414h1.2c0-.788-.244-1.507-.722-2.138l-.478.362Zm.6 1.776h-.6c0 .412-.11.787-.337 1.14l.505.324.505.325c.35-.544.527-1.145.527-1.789h-.6Zm-.432 1.464-.508-.32a2.733 2.733 0 0 1-.929.886l.309.514.309.515c.552-.332 1-.756 1.327-1.275l-.508-.32Zm-1.128 1.08-.304-.518c-.38.224-.813.359-1.306.4l.05.598.05.598a4.239 4.239 0 0 0 1.813-.56l-.303-.518Zm-1.56.48h.6v-.264h-1.2v.264h.6Zm0-.264v.6a3.24 3.24 0 0 1 1.543.362l.28-.53.282-.53a4.437 4.437 0 0 0-2.105-.502v.6Zm1.824.432-.28.53c.452.24.804.567 1.067.988l.509-.318.509-.318a3.944 3.944 0 0 0-1.524-1.412l-.281.53Zm1.296 1.2-.504.325c.254.394.384.84.384 1.355h1.2a3.63 3.63 0 0 0-.576-2.005l-.504.325Zm.48 1.68h-.6a2.66 2.66 0 0 1-.55 1.654l.478.362.478.362a3.854 3.854 0 0 0 .794-2.378h-.6Zm-.672 2.016-.485-.354c-.363.497-.876.909-1.565 1.225l.25.545.25.545c.847-.388 1.533-.92 2.035-1.607l-.485-.354Zm-1.8 1.416-.245-.548c-.663.297-1.434.452-2.323.452v1.2c1.03 0 1.972-.18 2.813-.556l-.245-.548Zm16.168.048-.424.424.01.01.01.01.404-.444Zm0-12.624.404.444.01-.01.01-.01-.424-.424Zm1.32 0-.444.404.01.01.01.01.424-.424Zm0 12.624.424.424.01-.01.01-.01-.444-.404Zm-11.64 0-.444.404.02.02.02.02.404-.444Zm0-12.624.424.424-.424-.424Zm1.32 0-.444.404.02.02.02.02.404-.444Zm0 12.624-.424-.424.424.424Zm-.048-5.544h-.6v.6h.6v-.6Zm0-1.656v-.6h-.6v.6h.6Zm9.432 0h.6v-.6h-.6v.6Zm0 1.656v.6h.6v-.6h-.6ZM59.185 33v-.6c-.146 0-.219-.039-.268-.084l-.404.444-.404.444a1.56 1.56 0 0 0 1.076.396V33Zm-.672-.24.424-.424c-.045-.046-.088-.116-.088-.272h-1.2c0 .42.133.814.44 1.12l.424-.424Zm-.264-.696h.6V20.808h-1.2v11.256h.6Zm0-11.256h.6c0-.158.043-.205.068-.228l-.404-.444-.404-.444c-.327.297-.46.698-.46 1.116h.6Zm.264-.672.424.424c.053-.052.119-.088.248-.088v-1.2c-.415 0-.797.14-1.096.44l.424.424Zm.672-.264v.6c.13 0 .175.035.204.068l.444-.404.444-.404c-.29-.32-.678-.46-1.092-.46v.6Zm.648.264-.424.424c.019.02.064.074.064.248h1.2c0-.402-.115-.795-.416-1.096l-.424.424Zm.24.672h-.6v11.256h1.2V20.808h-.6Zm0 11.256h-.6c0 .172-.045.25-.084.292l.444.404.444.404c.28-.31.396-.696.396-1.1h-.6Zm-.24.696-.424-.424c-.026.025-.077.064-.224.064v1.2c.397 0 .777-.121 1.072-.416l-.424-.424ZM48.865 33v-.6c-.146 0-.219-.039-.268-.084l-.404.444-.404.444a1.56 1.56 0 0 0 1.076.396V33Zm-.672-.24.444-.404c-.04-.043-.084-.12-.084-.292h-1.2c0 .404.115.79.396 1.1l.444-.404Zm-.24-.696h.6V20.808h-1.2v11.256h.6Zm0-11.256h.6c0-.174.045-.229.064-.248l-.424-.424-.424-.424c-.301.3-.416.694-.416 1.096h.6Zm.24-.672.424.424c.053-.052.119-.088.248-.088v-1.2c-.415 0-.797.14-1.096.44l.424.424Zm.672-.264v.6c.13 0 .175.035.204.068l.444-.404.444-.404c-.29-.32-.678-.46-1.092-.46v.6Zm.648.264-.404.444c.025.023.068.07.068.228h1.2c0-.418-.133-.819-.46-1.116l-.404.444Zm.264.672h-.6v11.256h1.2V20.808h-.6Zm0 11.256h-.6c0 .156-.043.226-.088.272l.424.424.424.424c.306-.306.44-.7.44-1.12h-.6Zm-.264.696-.424-.424c-.026.025-.077.064-.224.064v1.2c.397 0 .777-.121 1.072-.416l-.424-.424Zm-.048-5.544h.6V25.56h-1.2v1.656h.6Zm0-1.656v.6h9.432v-1.2h-9.432v.6Zm9.432 0h-.6v1.656h1.2V25.56h-.6Zm0 1.656v-.6h-9.432v1.2h9.432v-.6Zm7.982 5.064-.302.519.01.005.292-.524Zm-2.352-2.376-.525.291.004.007.52-.298Zm-.048-6.912-.528-.285-.002.003.53.282Zm8.664-2.4-.318.509.01.006.308-.515Zm2.112 2.28.535-.272-.535.272Zm.504 3.96.401.446.012-.01.01-.012-.423-.424Zm-10.824.216h-.6v.6h.6v-.6Zm0-1.536v-.6h-.6v.6h.6Zm10.392 0 .35.487 1.508-1.087h-1.858v.6Zm-1.032.744-.6-.01-.02 1.197.97-.7-.35-.487Zm-.504-2.496.54-.259-.54.259Zm-1.512-1.728-.327.503.005.004.322-.507Zm-4.704.024-.32-.508.32.508Zm-1.608 1.8-.537-.268-.002.004.539.264Zm.072 5.184-.525.29.004.009.52-.299Zm1.752 1.776-.304.517.304-.517Zm4.272.36.19.57.008-.004-.198-.566Zm1.416-.768-.38-.464-.007.005-.005.005.392.454Zm.6-.216v.6h.021l.021-.002-.042-.598Zm.576.168.407-.44-.016-.015-.017-.014-.374.469Zm.312.624h-.6v.021l.001.022.599-.043Zm-.264.576-.385-.461-.004.003.389.458Zm-2.016 1.128.2.566.01-.004-.21-.562Zm-2.352.432v-.6c-1.207 0-2.257-.26-3.165-.765l-.291.525-.292.524c1.108.616 2.362.916 3.748.916v-.6Zm-3.456-.84.3-.519a5.726 5.726 0 0 1-2.131-2.155l-.521.298-.521.298a6.927 6.927 0 0 0 2.571 2.597l.302-.519Zm-2.352-2.376.524-.291c-.504-.909-.764-1.958-.764-3.165h-1.2c0 1.385.3 2.64.915 3.747l.525-.291Zm-.84-3.456h.6c0-1.23.247-2.282.721-3.174l-.53-.282-.529-.282c-.581 1.092-.862 2.344-.862 3.738h.6Zm.792-3.456.528.285a5.54 5.54 0 0 1 2.016-2.149l-.312-.512-.313-.512a6.742 6.742 0 0 0-2.447 2.603l.528.285Zm2.232-2.376.312.512c.84-.512 1.817-.776 2.952-.776v-1.2c-1.33 0-2.528.312-3.577.952l.313.512Zm3.264-.864v.6c1.12 0 2.063.257 2.85.749l.318-.509.318-.509c-1.005-.628-2.175-.931-3.486-.931v.6Zm3.168.84-.308.515a4.89 4.89 0 0 1 1.885 2.037l.535-.272.535-.272a6.088 6.088 0 0 0-2.34-2.523l-.307.515Zm2.112 2.28-.535.272c.447.88.679 1.897.679 3.064h1.2c0-1.33-.265-2.536-.81-3.608l-.534.272Zm.744 3.336h-.6c0 .12-.032.167-.065.2l.425.424.424.424a1.44 1.44 0 0 0 .416-1.048h-.6Zm-.24.624-.402-.446c-.03.027-.085.062-.222.062v1.2c.374 0 .735-.109 1.025-.37l-.401-.446Zm-.624.216v-.6h-10.2v1.2h10.2v-.6Zm-10.2 0h.6v-1.536h-1.2v1.536h.6Zm0-1.536v.6h10.392v-1.2H64.935v.6Zm10.392 0-.351-.487-1.032.744.35.487.352.487 1.031-.744-.35-.487Zm-1.032.744.6.01c.017-1.008-.166-1.934-.563-2.765l-.541.259-.542.259c.307.641.46 1.379.446 2.227l.6.01Zm-.504-2.496.54-.259a4.68 4.68 0 0 0-1.731-1.976l-.321.507-.322.507c.556.352.986.84 1.292 1.48l.542-.259Zm-1.512-1.728.327-.503c-.754-.49-1.64-.721-2.631-.721v1.2c.8 0 1.45.185 1.977.527l.327-.503Zm-2.304-.624v-.6c-1.011 0-1.924.24-2.72.74l.32.508.319.508c.58-.365 1.267-.556 2.08-.556v-.6Zm-2.4.648-.32-.508a4.993 4.993 0 0 0-1.825 2.04l.537.268.536.268c.338-.675.801-1.19 1.39-1.56l-.318-.508Zm-1.608 1.8-.54-.264c-.414.847-.612 1.804-.612 2.856h1.2c0-.9.169-1.67.49-2.328l-.538-.264Zm-.552 2.592h-.6c0 1.064.227 2.03.699 2.882l.525-.29.525-.29c-.36-.652-.55-1.414-.55-2.302h-.6Zm.624 2.592-.52.299a5.385 5.385 0 0 0 1.968 1.994l.304-.517.303-.517a4.186 4.186 0 0 1-1.535-1.558l-.52.299Zm1.752 1.776-.304.517c.84.493 1.794.731 2.848.731v-1.2c-.867 0-1.608-.194-2.24-.565l-.304.517Zm2.544.648v.6c.644 0 1.284-.108 1.917-.319l-.19-.569-.19-.57a4.837 4.837 0 0 1-1.537.258v.6Zm1.728-.288.198.566c.64-.225 1.185-.513 1.61-.88l-.392-.454-.392-.454c-.28.24-.679.465-1.223.656l.199.566Zm1.416-.768.38.464a.323.323 0 0 1 .22-.08v-1.2c-.365 0-.699.121-.98.352l.38.464Zm.6-.216.042.599c.09-.007.129.013.159.037l.375-.468.374-.468a1.397 1.397 0 0 0-.993-.299l.043.599Zm.576.168-.407.44c.12.111.119.17.119.184h1.2c0-.433-.209-.791-.505-1.065l-.407.441Zm.312.624-.599.043a.075.075 0 0 1 0 .019c-.001 0-.01.02-.05.053l.385.461.384.46c.32-.267.51-.638.478-1.079l-.598.043Zm-.264.576-.389-.457c-.463.393-1.07.737-1.837 1.023l.21.562.21.562c.864-.322 1.601-.73 2.194-1.233l-.388-.457Zm-2.016 1.128-.2-.566c-.761.269-1.478.398-2.152.398v1.2c.83 0 1.68-.159 2.551-.466l-.2-.566Zm8.441-.432-.311.513.01.006.301-.519Zm-2.328-2.4-.524.291.003.007.521-.298Zm-.024-6.84.528.285-.528-.285Zm2.232-2.376.313.512.006-.004-.319-.508Zm5.952-.312-.255.543.004.002.251-.545Zm2.184 1.728-.466.378.012.014.012.013.442-.405Zm.192.624.585.135.002-.01-.587-.125Zm-.408.552-.349-.488-.004.003.353.485Zm-.6.144-.135.585.025.005.025.004.085-.594Zm-.552-.36.461-.384-.005-.006-.005-.006-.45.396Zm-5.88-.936-.319-.508-.005.003.324.505Zm-1.584 1.776-.534-.273-.005.01.54.263Zm.048 5.16.53-.282-.53.282Zm1.68 1.776-.309.514.31-.514Zm4.176.408.18.573.01-.004-.19-.569Zm1.392-.792-.384-.46-.006.004-.006.006.396.45Zm.6-.264.046.598-.046-.598Zm.576.192.405-.442-.012-.012-.013-.01-.38.464Zm.312.6-.598.043.001.02.003.022.594-.085Zm-.216.576-.403-.444-.003.002.406.442Zm-4.368 1.608v-.6c-1.17 0-2.191-.265-3.083-.783l-.3.519-.302.519c1.093.634 2.326.945 3.685.945v-.6Zm-3.384-.864.311-.513a5.97 5.97 0 0 1-2.118-2.185l-.52.298-.522.298a7.17 7.17 0 0 0 2.538 2.615l.311-.513Zm-2.328-2.4.525-.291c-.506-.91-.765-1.945-.765-3.117h-1.2c0 1.356.301 2.594.916 3.7l.524-.292Zm-.84-3.408h.6c0-1.192.253-2.236.744-3.147l-.528-.285-.528-.285c-.597 1.105-.888 2.35-.888 3.717h.6Zm.816-3.432.528.285a5.54 5.54 0 0 1 2.017-2.149l-.313-.512-.312-.512a6.741 6.741 0 0 0-2.448 2.603l.528.285Zm2.232-2.376.319.508c.838-.526 1.814-.796 2.945-.796v-1.2c-1.332 0-2.533.322-3.583.98l.32.508Zm3.264-.888v.6c.895 0 1.703.175 2.433.519l.255-.543.256-.543c-.903-.425-1.887-.633-2.944-.633v.6Zm2.688.576-.251.545c.742.342 1.398.859 1.97 1.561l.465-.378.466-.378c-.677-.834-1.477-1.47-2.398-1.895l-.252.545Zm2.184 1.728-.442.405a.208.208 0 0 1 .05.076.07.07 0 0 1-.003.017l.587.126.587.126c.094-.442-.05-.843-.337-1.155l-.442.405Zm.192.624-.585-.135c-.006.028-.031.098-.172.199l.35.488.348.488c.308-.22.554-.517.644-.905l-.585-.135Zm-.408.552-.353-.485c-.044.032-.086.046-.162.035l-.085.594-.085.594c.372.053.73-.029 1.038-.253l-.353-.485Zm-.6.144.135-.585c-.06-.013-.135-.05-.226-.16l-.46.385-.462.384c.23.275.522.478.878.56l.135-.584Zm-.552-.36.45-.396c-1.041-1.186-2.374-1.788-3.954-1.788v1.2c1.236 0 2.24.454 3.053 1.38l.451-.396Zm-3.504-1.584v-.6c-.997 0-1.902.242-2.695.74l.32.508.318.508c.583-.366 1.262-.556 2.057-.556v-.6Zm-2.376.648-.324-.505a5.09 5.09 0 0 0-1.794 2.008l.534.273.535.273a3.891 3.891 0 0 1 1.374-1.544l-.325-.505Zm-1.584 1.776-.539-.264c-.414.847-.613 1.804-.613 2.856h1.2c0-.9.17-1.67.491-2.328l-.539-.264Zm-.552 2.592h-.6c0 1.046.219 2 .67 2.85l.53-.282.53-.282c-.348-.655-.53-1.412-.53-2.286h-.6Zm.6 2.568-.53.282a5.088 5.088 0 0 0 1.901 2.009l.31-.515.308-.515a3.888 3.888 0 0 1-1.46-1.543l-.529.282Zm1.68 1.776-.309.514c.823.494 1.756.734 2.781.734v-1.2c-.83 0-1.546-.192-2.163-.563l-.309.515Zm2.472.648v.6c.675 0 1.305-.087 1.883-.267l-.179-.573-.179-.573a5.07 5.07 0 0 1-1.525.213v.6Zm1.704-.24.19.57a4.593 4.593 0 0 0 1.598-.912l-.396-.45-.396-.45c-.337.296-.73.521-1.186.673l.19.569Zm1.392-.792.384.46a.478.478 0 0 1 .262-.126l-.046-.598-.046-.598c-.355.027-.67.178-.938.401l.384.461Zm.6-.264.046.598c.04-.003.082.002.15.058l.38-.464.38-.464a1.388 1.388 0 0 0-1.002-.326l.046.598Zm.576.192-.405.442c.098.09.115.154.119.2l.598-.042.599-.043a1.498 1.498 0 0 0-.505-1l-.406.443Zm.312.6-.594.085a.088.088 0 0 1 .001.02l.001-.004-.002.003a.172.172 0 0 1-.025.028l.403.444.404.444a1.22 1.22 0 0 0 .406-1.105l-.594.085Zm-.216.576-.406-.442c-1.046.96-2.352 1.45-3.962 1.45v1.2c1.878 0 3.484-.582 4.774-1.766l-.406-.442Z" fill="#8A8A8A" mask="url(#Group 1__a)"/></svg>